<svg width="1920" height="940" viewBox="0 0 1920 940" fill="none" xmlns="http://www.w3.org/2000/svg">
  <defs>
    <linearGradient id="bg" x1="960" y1="0" x2="960" y2="940" gradientUnits="userSpaceOnUse">
      <stop offset="0%" stop-color="#05122C" />
      <stop offset="100%" stop-color="#071733" />
    </linearGradient>
    <linearGradient id="stem" x1="0" y1="0" x2="0" y2="1">
      <stop offset="0%" stop-color="#1F2F4D" />
      <stop offset="100%" stop-color="#122038" stop-opacity="0" />
    </linearGradient>
    <style>
      .title { font-family: 'Montserrat', 'Arial', sans-serif; font-weight: 700; fill: #FFFFFF; font-size: 30px; }
      .body { font-family: 'Open Sans', 'Arial', sans-serif; font-weight: 600; fill: #E3E7F2; font-size: 26px; }
      .dark { fill: #0F1425; stroke: #1E2A46; }
      .branch { fill: none; stroke: #1E2A46; stroke-width: 6; stroke-linecap: round; }
    </style>
  </defs>
  <rect width="1920" height="940" fill="url(#bg)" rx="32" />

  <g id="CEO">
    <rect x="830" y="72" width="260" height="96" rx="28" fill="#0F6CFF" />
    <text x="960" y="132" text-anchor="middle" class="title">CEO</text>
  </g>

  <path class="branch" d="M960 168 L960 252" />

  <g id="management" transform="translate(482 252)">
    <rect width="360" height="108" rx="30" fill="#1FA084" />
    <text x="180" y="62" text-anchor="middle" class="title">Management Support</text>
    <text x="180" y="98" text-anchor="middle" class="title">Division</text>
  </g>

  <path class="branch" d="M960 360 L960 420" />
  <path class="branch" d="M730 360 L1190 360" />
  <path class="branch" d="M730 360 L730 420" />
  <path class="branch" d="M1190 360 L1190 420" />
  <path class="branch" d="M1520 306 L1520 522" />
  <path class="branch" d="M842 306 L842 522" />

  <g transform="translate(946 252)">
    <rect width="28" height="108" fill="#1FA084" />
  </g>

  <g id="support" transform="translate(1240 252)">
    <rect x="0" y="0" width="240" height="76" rx="22" fill="#121E33" stroke="#283552" stroke-width="2" />
    <rect x="0" y="110" width="240" height="76" rx="22" fill="#121E33" stroke="#283552" stroke-width="2" />
    <rect x="0" y="220" width="240" height="76" rx="22" fill="#121E33" stroke="#283552" stroke-width="2" />
    <text x="120" y="45" text-anchor="middle" class="body">HR / General Affairs</text>
    <text x="120" y="155" text-anchor="middle" class="body">Purchasing</text>
    <text x="120" y="265" text-anchor="middle" class="body">Accounting</text>
  </g>

  <path class="branch" d="M1240 290 L1200 290" />
  <path class="branch" d="M1240 400 L1200 400" />
  <path class="branch" d="M1240 510 L1200 510" />
  <path class="branch" d="M1240 290 L1240 510" />

  <g id="fabrication" transform="translate(332 420)">
    <rect width="360" height="108" rx="30" fill="#2C4A7A" />
    <text x="180" y="70" text-anchor="middle" class="title">Fabrication Division</text>
    <g transform="translate(0 140)">
      <rect width="168" height="76" rx="22" class="dark" />
      <rect x="192" width="168" height="76" rx="22" class="dark" />
      <rect y="110" width="168" height="76" rx="22" class="dark" />
      <rect x="192" y="110" width="168" height="76" rx="22" class="dark" />
      <text x="84" y="46" text-anchor="middle" class="body">Production Team</text>
      <text x="276" y="46" text-anchor="middle" class="body">Engineering Team</text>
      <text x="84" y="156" text-anchor="middle" class="body">Fire Protection</text>
      <text x="84" y="186" text-anchor="middle" class="body">Piping Team</text>
      <text x="276" y="156" text-anchor="middle" class="body">Equipment &amp;</text>
      <text x="276" y="186" text-anchor="middle" class="body">Spool Team</text>
    </g>
  </g>

  <g id="installation" transform="translate(780 420)">
    <rect width="360" height="108" rx="30" fill="#1A905F" />
    <text x="180" y="70" text-anchor="middle" class="title">Installation Division</text>
    <g transform="translate(40 140)">
      <rect width="280" height="76" rx="22" class="dark" />
      <rect y="110" width="280" height="76" rx="22" class="dark" />
      <rect y="220" width="280" height="76" rx="22" class="dark" />
      <rect y="330" width="280" height="76" rx="22" class="dark" />
      <rect y="440" width="280" height="76" rx="22" class="dark" />
      <text x="140" y="46" text-anchor="middle" class="body">Installation Team</text>
      <text x="140" y="156" text-anchor="middle" class="body">Project Control Manager</text>
      <text x="140" y="266" text-anchor="middle" class="body">Construction Manager</text>
      <text x="140" y="376" text-anchor="middle" class="body">Safety Manager</text>
      <text x="140" y="486" text-anchor="middle" class="body">QC Manager</text>
    </g>
  </g>

  <g id="newbusiness" transform="translate(1228 420)">
    <rect width="360" height="108" rx="30" fill="#C12C40" />
    <text x="180" y="70" text-anchor="middle" class="title">New Business Division</text>
    <g transform="translate(40 140)">
      <rect width="280" height="76" rx="22" class="dark" />
      <rect y="110" width="280" height="76" rx="22" class="dark" />
      <rect y="220" width="280" height="76" rx="22" class="dark" />
      <rect y="330" width="280" height="76" rx="22" class="dark" />
      <rect y="440" width="280" height="76" rx="22" class="dark" />
      <rect y="550" width="280" height="76" rx="22" class="dark" />
      <text x="140" y="46" text-anchor="middle" class="body">Fire Protection Support Team</text>
      <text x="140" y="156" text-anchor="middle" class="body">Sales Team</text>
      <text x="140" y="266" text-anchor="middle" class="body">Sales Manager</text>
      <text x="140" y="376" text-anchor="middle" class="body">Installation Support Team</text>
      <text x="140" y="486" text-anchor="middle" class="body">Maintenance Team</text>
      <text x="140" y="596" text-anchor="middle" class="body">Project Estimator</text>
    </g>
  </g>

  <path class="branch" d="M512 420 L512 360" />
  <path class="branch" d="M960 420 L960 360" />
  <path class="branch" d="M1408 420 L1408 360" />
  <path class="branch" d="M512 528 L512 620" />
  <path class="branch" d="M960 528 L960 620" />
  <path class="branch" d="M1408 528 L1408 620" />
  <path class="branch" d="M392 528 L632 528" />
  <path class="branch" d="M900 528 L1020 528" />
  <path class="branch" d="M1348 528 L1468 528" />
</svg>
